PathFileType	4	(X/Y/Z)	Patient4_TMGait_0pt2_01_right_11.trc.trc
DataRate	CameraRate	NumFrames	NumMarkers	Units	OrigDataRate	OrigDataStartFrame	OrigNumFrames
43.076923076923	43.076923076923	4	33	mm	43.076923076923	18	       141
Frame#	Time	Sacral			L.Shoulder			Chest			R.Shoulder			Neck			R.ASIS			L.ASIS			R.Thigh.Superior			R.Thigh.Lateral			R.Thigh.Inferior			R.Patella			L.Thigh.Superior			L.Thigh.Lateral			L.Thigh.Inferior			L.Patella			L.Shank.Superior			L.Shank.Lateral			L.Shank.Inferior			R.Shank.Superior			R.Shank.Lateral			R.Shank.Inferior			R.Heel			R.Midfoot.Superior			R.Midfoot.Lateral			R.Toe			L.Heel			L.Midfoot.Lateral			L.Midfoot.Superior			L.Toe			L.Elbow			L.Wrist			R.Elbow			R.Wrist			
		X1	Y1	Z1	X2	Y2	Z2	X3	Y3	Z3	X4	Y4	Z4	X5	Y5	Z5	X6	Y6	Z6	X7	Y7	Z7	X8	Y8	Z8	X9	Y9	Z9	X10	Y10	Z10	X11	Y11	Z11	X12	Y12	Z12	X13	Y13	Z13	X14	Y14	Z14	X15	Y15	Z15	X16	Y16	Z16	X17	Y17	Z17	X18	Y18	Z18	X19	Y19	Z19	X20	Y20	Z20	X21	Y21	Z21	X22	Y22	Z22	X23	Y23	Z23	X24	Y24	Z24	X25	Y25	Z25	X26	Y26	Z26	X27	Y27	Z27	X28	Y28	Z28	X29	Y29	Z29	X30	Y30	Z30	X31	Y31	Z31	X32	Y32	Z32	X33	Y33	Z33	

18	23.914642857143	766.534167428815	1005.472825984660	352.626042409838	986.568666507073	1438.654277237037	226.241299676853	1033.520379706966	1372.310582322689	410.732417299712	900.190963528352	1442.822132860555	551.878097789443	917.539043364955	1498.583654014741	373.716896391076	959.743962902540	951.799709888960	529.084382835952	1015.698314274934	963.267104307507	258.812938581252	1029.570347593110	763.421559567352	518.472924829440	960.299892169963	648.770567039023	581.121396450318	1053.210965446378	600.420840446708	515.236836856417	1074.949544864059	517.634775756731	535.159726202158	1031.830935496977	739.218627461589	301.389019975993	940.282226828149	625.610006012692	229.862051996696	999.804618893980	546.547926809408	310.503587793827	988.988582605225	479.646560260538	322.618446972831	959.780016003136	409.352540118404	315.180222940210	870.302081921935	296.530134350954	261.984133757639	903.275225940215	188.497523665145	347.125968420051	1052.279816844406	429.973332617766	547.538515618874	986.391406485001	324.854074692815	614.973823780653	1051.340090407394	230.382478545244	572.184765930878	944.049035365371	47.848750208871	551.547623584078	1109.792078283878	112.822896103694	591.280714933705	1028.654057836887	41.743214945313	625.412613052100	1233.758970974717	72.927773741891	618.809647762956	763.973845522016	38.636995763921	386.750823347248	842.861724074419	35.286826342371	310.781703250623	925.204899053974	95.564332887118	342.506383552852	1054.651316747078	42.968133784856	322.798249156147	1105.826211568308	1116.019768738353	98.074808660449	1352.417209184131	1099.404352658356	169.413568249394	736.210123644716	1130.873473672872	618.500702929611	712.878459701651	869.509565862331	604.358773407535	
19	23.937857142857	766.685291780268	1004.682700128740	353.555201392364	987.749923628913	1437.473783998366	228.414340402328	1033.377826837850	1371.394235143399	413.327657509050	899.226513418188	1442.391825918069	553.442253768143	917.972642746041	1497.810893281243	375.356867018922	958.621849605859	950.619783086394	531.265897890401	1016.327789260994	962.690116966780	261.231716685608	1027.865961153082	761.991801394691	521.405566555293	957.530008910816	647.105950259475	582.778061845171	1051.126135710518	599.296940385216	517.472976789706	1072.358158881510	517.950590702580	536.302174697856	1030.471705434121	738.397663667215	303.122076320420	937.818536015250	625.851657090359	230.521612827409	996.000468717011	545.969254486789	311.014586731223	984.449489815959	479.323482319281	322.845824155773	955.335074900105	409.292032407900	315.372312649668	865.658477048457	296.662247476207	262.259538613813	898.694928950820	188.451153393958	347.211992279933	1052.828148378022	429.954781557161	548.622626124176	990.304261421014	322.616320557638	616.173425261564	1058.212333265181	230.050799413193	573.100584805350	955.777390746905	45.789470061176	552.491864044196	1120.788490922912	112.339101925586	591.582822389428	1040.899142991238	40.028790986021	625.612399256389	1245.414146001771	73.573301234790	617.601321034721	759.320691822122	38.617474556488	386.766185050897	838.171380322705	35.282562564802	310.828319218376	920.531795314849	95.535703237699	342.539590199644	1049.965811776830	42.897514845484	322.787167679177	1109.932500114690	1116.239087488749	100.882693391206	1356.435977144709	1110.286087808166	172.639118401095	733.670245465567	1131.107642202381	618.545707184922	709.511270478488	869.781912645986	603.218972728987	
20	23.961071428571	767.143615756842	1003.615783409319	354.872398419828	988.676425603333	1436.160911054801	230.977348710631	1033.264148363797	1370.347025160342	416.239257662403	898.400606721533	1441.679391068690	555.486860996844	918.308394603559	1496.829214076690	377.453193752055	958.024446758758	949.055737053233	533.558383582881	1017.201107779752	962.103103926538	263.767298502224	1027.163071126395	760.479556004259	523.900092943836	956.075825870160	645.149832525309	583.968174253500	1050.369670941201	598.110267604897	519.095065479524	1070.827135113282	517.650332902483	536.915904620487	1029.514853389607	737.499641526315	304.764665358464	935.633712732614	626.043268945190	231.275752751351	992.522095160606	545.334083537049	311.569658386669	980.287434931856	478.926900144972	323.134470603956	951.157317363273	409.151028793464	315.628301255115	861.184097600138	296.792155011400	262.557415956535	894.188215114798	188.359610043273	347.306617473596	1053.597384616623	429.302906776217	549.189305243643	993.226202133712	320.606814031645	616.559133690228	1062.969730182449	229.408336473517	573.165726696138	963.512727771073	44.751040119153	552.201854062131	1128.176673831766	111.581260563214	591.065525880638	1048.769179664888	38.978657538977	624.921511124402	1252.836097667007	72.954102423074	616.152538269641	754.651634618127	38.583732370218	386.778543499546	833.473536114021	35.266425564502	310.865670425243	915.851383823053	95.503757073465	342.563764947432	1045.275087924273	42.828029796658	322.772502530505	1113.889020356364	1116.409670797125	103.971178318587	1359.902938450694	1120.791403549632	176.086945520943	731.638937671777	1130.925298953377	619.520608929224	706.875963401880	869.609714064058	603.415019066094	
21	23.984285714286	767.925647987915	1002.379160036610	356.567435375308	989.405561317277	1434.800952068412	233.934393635639	1033.218403747196	1369.244622726232	419.476830695276	897.731532326543	1440.755006844319	558.012479839272	918.569834071826	1495.710003512514	380.009160344056	957.974799918453	947.211765035739	535.963029319941	1018.345086710639	961.550218253747	266.420846117248	1027.434673312913	758.923913816960	525.952882610744	955.863671576896	643.008945837054	584.759708335518	1050.802354162475	596.883697274129	520.154432508782	1070.266837204211	516.791571303324	537.058978695078	1028.928566244483	736.527340679107	306.339613020749	933.684507306997	626.197926362554	232.152048806587	989.324263308253	544.652866713533	312.201177125790	976.444476821124	478.468844853304	323.519124099965	947.207735928563	408.955780038940	315.960961691695	856.846333404773	296.935923928391	262.877666340177	889.735586818194	188.240446520033	347.410914067798	1054.547850020297	428.053311778548	549.313188285621	995.227072766472	318.723117684840	616.328012202063	1065.747352948314	228.329505102537	572.526397942113	967.461976527396	44.323851942136	551.003228957970	1132.180170288656	110.463266636027	589.889378910616	1052.566960030960	38.360755195527	623.633691224170	1256.406923819236	71.181467798893	614.611430889119	749.966606991732	38.536654414393	386.786904966789	828.769228358019	35.237926833459	310.892913808553	911.165937673432	95.470731503901	342.575814953696	1040.581492654750	42.762912597367	322.755149938208	1117.689628667945	1116.593761997751	107.333875599559	1362.862444258762	1130.922604640551	179.721268910121	730.129529164822	1130.404433704130	621.387541251836	704.951900734048	869.076921227526	604.898320498173	
